PathFileType	4	(X/Y/Z)	17_1_35_p1_0-255.trc
DataRate	CameraRate	NumFrames	NumMarkers	Units	OrigDataRate	OrigDataStartFrame	OrigNumFrames
60.0	60.0	4	27	m	60.0	0	256
Frame#	Time	RHip			RKnee			RAnkle			RBigToe			RSmallToe			RHeel			LHip			LKnee			LAnkle			LBigToe			LSmallToe			LHeel			Neck			Head			Nose			RShoulder			RElbow			RWrist			RThumb			RIndex			RPinky			LShoulder			LElbow			LWrist			LThumb			LIndex			LPinky			
		X1	Y1	Z1	X2	Y2	Z2	X3	Y3	Z3	X4	Y4	Z4	X5	Y5	Z5	X6	Y6	Z6	X7	Y7	Z7	X8	Y8	Z8	X9	Y9	Z9	X10	Y10	Z10	X11	Y11	Z11	X12	Y12	Z12	X13	Y13	Z13	X14	Y14	Z14	X15	Y15	Z15	X16	Y16	Z16	X17	Y17	Z17	X18	Y18	Z18	X19	Y19	Z19	X20	Y20	Z20	X21	Y21	Z21	X22	Y22	Z22	X23	Y23	Z23	X24	Y24	Z24	X25	Y25	Z25	X26	Y26	Z26	X27	Y27	Z27	
0	0.0	0.2386689526987574	0.5761398921425672	0.8232827272394889	0.2377988789980911	0.6265751972505768	1.241115200734041	0.20321944869752262	0.7955031534742821	1.7021087482334336	0.235523103576756	0.5481954823515415	1.7278301713090527	0.28452587926082007	0.6116786295589136	1.7432977660037	0.19297423375916647	0.8127381378505496	1.7359539063725544	0.029288499001065435	0.5522085894012234	0.8257010020044547	0.02468588189414741	0.610885118305542	1.2463513662694605	-0.0039367361287307515	0.7355540853414508	1.671238758799203	0.07235744502727312	0.5238892011291681	1.7113203683513776	-0.002752249523977189	0.5433929010490669	1.7057199909969567	-0.015361688033905505	0.8259050709384139	1.7584615588063601	0.1281131306205047	0.5052110021610282	0.20312758776609924	0.13309860468151224	0.4541837268999653	-0.04877340894199193	0.14478548812683464	0.3426257905803094	0.0914880999593607	0.30001347831563224	0.5029880965203646	0.3017545168689686	0.3094170694188097	0.44631525112159504	0.5537382069781106	0.23535626437372995	0.2730616729468665	0.763415919070568	0.18293796195997844	0.19020099826254436	0.8223767626043881	0.17690115160648612	0.2205068358965536	0.8540480323422189	0.18973164361209835	0.285213824980424	0.8646076493931025	-0.010070980098911806	0.5101725274612628	0.3037610602451261	-0.016969569850095838	0.4207074765868946	0.5697014566524203	0.11724106632933196	0.26314755999711403	0.7518169952139535	0.22635226724720064	0.2544233824137843	0.7910494213262673	0.22605204963114997	0.2315918047204109	0.837453715038657	0.16692978387523053	0.23247273523624543	0.8530482607967937
1	0.016666666666666666	0.23922143767176798	0.5755358803525227	0.8195338497126677	0.2380092482544614	0.6267495655946987	1.2411867686484674	0.20312118029377638	0.7952169894240196	1.7019426282691934	0.2355759922854068	0.5489811080823581	1.7280645025270245	0.28451030897049956	0.6122301744015678	1.7434966337756006	0.1926774927901332	0.8120365408942908	1.73543181536658	0.02938228915477483	0.5503422542028821	0.8171437676387869	0.025108006184633415	0.6101791669688372	1.2498549729486044	-0.003357958993944902	0.7379411135315771	1.677636995624982	0.07234292728328112	0.5238474435502454	1.7112439962442756	0.003603820284732837	0.5310022355263162	1.6947464033971196	-0.014645381902721372	0.8250389164058137	1.7632087433813244	0.1281502975566655	0.5052786130376287	0.20317744441667843	0.13329673372932602	0.45365033278070616	-0.046121431444025654	0.14475517699889184	0.3426480284711887	0.09145734006231683	0.300146704579173	0.5030952041473921	0.29807156550096325	0.30035489894360046	0.45755814501773806	0.5556921798715468	0.23579218841870372	0.2746051799706397	0.7675487898642254	0.1821992815130279	0.21071922100819038	0.8346497605190155	0.17151104015905658	0.23420569517289183	0.8617348327642201	0.18816628676542327	0.2705963256815058	0.8679828607535367	-0.009995620756675977	0.51008187810728	0.30376319006841224	-0.01688531315268967	0.4207255226891505	0.5697376301137344	0.11725393409227962	0.2629349853359683	0.7520359532969355	0.22520220372496869	0.25468449482206873	0.8006884907176941	0.226000058690562	0.23369413963337954	0.8387690801622094	0.1677375562978802	0.23613552145379002	0.8580942740431055
2	0.03333333333333333	0.2386451648352477	0.5741994989344653	0.8145184738415103	0.23842874246243692	0.6264641109171448	1.2445384067989673	0.20315627238477915	0.7953244190349088	1.7020498362488181	0.23555467802566157	0.5484867448783217	1.7278640504759954	0.2907471651190992	0.5951114104051762	1.7389614867628722	0.19280838056477698	0.8125063759652229	1.7359386011585962	0.029401010721974572	0.5502650720724708	0.8172702044005731	0.024760785256095385	0.6108535818514877	1.2463569500271057	-0.005176563858325503	0.7363142443403564	1.676323715141857	0.07804684550247704	0.5099179013901627	1.707614797535823	0.0037738944599211605	0.5306924092000944	1.694693833523275	-0.014725989882296082	0.8250258154191293	1.7636448168059273	0.1282151297747722	0.5052842757908382	0.20324774144507898	0.1333281990402334	0.45363127758954913	-0.04615523036150381	0.14480099918069184	0.3425961435431858	0.09149986734929486	0.30014932084044244	0.5031495201329917	0.2980677989590782	0.30029223086657336	0.4575547424699955	0.5557816402386938	0.23581832538959305	0.27474444935298126	0.7677252301813093	0.17344361641306794	0.210321977604359	0.8359839782423192	0.16788756394376408	0.23206786912766186	0.8615698895753117	0.1873519735803294	0.272534769350407	0.868572865159543	-0.009934898852125035	0.5099335155039888	0.3038153509300428	-0.013047991256645419	0.42512187101085885	0.5738419480562216	0.11674312669336162	0.26288251463525525	0.755761957312538	0.22512376017877	0.25378392645680165	0.8077033280102467	0.22782290974130726	0.2441899152222779	0.8448958545899877	0.16790373309324041	0.2362635912497531	0.8582973555747238
3	0.05	0.23851635473999508	0.5743100792892736	0.8143862711406896	0.23796022472926112	0.6273869243574453	1.240768179043354	0.2031017551954052	0.7952275415348339	1.7019567599105379	0.23929639104342393	0.5204931981666471	1.7136146383146513	0.28625404874121535	0.5919283649946112	1.7378793045244751	0.19164528204973952	0.8128372424472816	1.741560477788849	0.029081598194241352	0.5507166672150682	0.8139230855175007	0.02478561512393949	0.6106814936432173	1.246174538549615	-0.005174166658885799	0.7362469775280764	1.6762528016486544	0.07811390461218783	0.5096947706525682	1.7075150229371168	0.0037728228311413826	0.530661370491753	1.6944256233170862	-0.013123999814945154	0.8399194792562474	1.770702179759116	0.12835360311750452	0.5066399581340699	0.20740626041003296	0.1386988263370326	0.4421057616434077	-0.045210241592179484	0.1447677505868139	0.34262905935440907	0.09151485582552636	0.3000754089156933	0.5031485360334453	0.29810823441380063	0.3005994417398305	0.45892496115515513	0.559874793859639	0.2357358623724441	0.27499873664925484	0.7680018980012632	0.18431026243499676	0.2129635819494714	0.8342327152370294	0.16999134924277545	0.24418189680254995	0.8679052585908565	0.17622105080334632	0.2956681140666287	0.8748368697688049	-0.00990550167768989	0.5098707735699801	0.30382248944090795	-0.009352030743818733	0.4279270017667888	0.5739585610384245	0.11731776896236987	0.26296790754216154	0.7552784249715672	0.22268727522193518	0.2524831431783751	0.8041059224600821	0.22814012838365727	0.2441403772651012	0.8409693295758328	0.16229023358475103	0.24847711853228077	0.8617329446853217
